<svg width="28" height="4" viewBox="0 0 28 4" fill="none" xmlns="http://www.w3.org/2000/svg">
<path d="M14 4C15.1046 4 16 3.10457 16 2C16 0.89543 15.1046 0 14 0C12.8954 0 12 0.89543 12 2C12 3.10457 12.8954 4 14 4Z" fill="white"/>
<path d="M26 4C27.1046 4 28 3.10457 28 2C28 0.89543 27.1046 0 26 0C24.8954 0 24 0.89543 24 2C24 3.10457 24.8954 4 26 4Z" fill="white"/>
<path d="M2 4C3.10457 4 4 3.10457 4 2C4 0.89543 3.10457 0 2 0C0.89543 0 0 0.89543 0 2C0 3.10457 0.89543 4 2 4Z" fill="white"/>
</svg>
